<?xml version="1.0" standalone="no"?>
<!DOCTYPE svg PUBLIC "-//W3C//DTD SVG 20010904//EN"
 "http://www.w3.org/TR/2001/REC-SVG-20010904/DTD/svg10.dtd">
<svg version="1.0" xmlns="http://www.w3.org/2000/svg"
 width="2438.000000pt" height="1251.000000pt" viewBox="0 0 2438.000000 1251.000000"
 preserveAspectRatio="xMidYMid meet">
<metadata>
Created by potrace 1.16, written by Peter Selinger 2001-2019
</metadata>
<g transform="translate(0.000000,1251.000000) scale(0.100000,-0.100000)"
fill="#000000" stroke="none">
<path d="M11010 7829 c-129 -5 -269 -11 -310 -14 -41 -3 -217 -12 -390 -21
-173 -9 -317 -19 -320 -23 -3 -4 -77 -13 -165 -20 -150 -12 -174 -16 -164 -25
2 -2 103 -5 224 -8 121 -2 204 -2 185 2 -86 15 644 51 1184 58 1148 17 2083
-45 2969 -194 240 -40 607 -143 632 -177 5 -8 26 -17 46 -21 76 -14 429 -213
715 -402 292 -193 601 -426 914 -688 181 -151 360 -308 360 -314 0 -5 -48 -2
-354 19 -158 11 -160 11 -203 44 -25 19 -61 36 -86 40 -66 10 -110 28 -129 51
-10 12 -28 24 -42 28 -13 3 -26 15 -29 27 -5 17 -12 21 -36 17 -29 -4 -32 -2
-42 35 -6 25 -17 41 -30 44 -10 3 -19 11 -19 18 0 14 -21 26 -55 31 -20 4 -20
4 -1 -11 11 -8 15 -15 10 -15 -17 0 -33 22 -27 38 5 12 1 14 -26 9 -20 -4 -30
-3 -26 3 4 6 -2 13 -12 17 -10 4 -22 12 -28 19 -12 14 -65 25 -65 13 0 -22
-16 -6 -18 17 -3 35 -10 44 -34 44 -17 0 -19 2 -7 16 11 13 8 19 -17 39 -16
14 -37 24 -48 25 -10 0 -29 11 -42 26 -13 14 -24 22 -24 19 0 -3 -10 1 -22 9
-12 9 -29 16 -36 16 -7 0 -27 14 -44 30 -17 17 -40 30 -54 30 -14 0 -22 4 -19
10 3 6 2 10 -4 10 -6 0 -22 12 -36 26 -14 14 -29 23 -32 20 -4 -3 -18 4 -31
16 -14 13 -22 17 -18 11 4 -7 2 -13 -4 -13 -13 0 -32 48 -24 62 4 6 -1 8 -15
3 -16 -5 -21 -2 -21 10 0 14 -7 16 -35 13 -27 -3 -36 0 -40 13 -3 10 -16 19
-28 21 -16 2 -23 11 -25 31 -3 21 -9 27 -27 27 -13 0 -28 6 -32 13 -11 18 -80
69 -90 67 -22 -5 -83 12 -104 28 -13 11 -41 25 -61 31 -21 7 -38 17 -38 22 0
5 -6 9 -12 9 -7 0 -20 15 -28 33 -12 26 -23 33 -55 38 -176 28 -263 60 -267
99 -3 24 -6 25 -143 42 -77 10 -148 22 -157 28 -10 5 -32 10 -49 10 -36 0
-151 52 -178 81 -29 31 -126 53 -436 99 -185 27 601 -20 999 -60 99 -10 142
-7 69 4 -232 36 -738 82 -1013 91 -96 3 -245 10 -330 15 -85 5 -258 12 -385
15 -126 3 -390 10 -585 15 -298 9 -656 10 -1535 6 -108 -1 -127 2 -190 27 -38
15 -92 29 -120 32 l-50 5 45 -14 c25 -8 62 -21 82 -30 40 -17 126 -74 93 -61
-56 22 -214 54 -320 65 -119 12 -314 9 -520 -9 -76 -6 -85 -9 -57 -15 23 -6
32 -14 30 -25 -3 -12 -21 -18 -77 -23 -91 -9 -104 -18 -26 -18 67 0 70 -7 5
-13 -25 -3 -52 -7 -60 -10 -8 -3 -58 -8 -110 -11 -52 -4 -131 -15 -175 -25
-44 -10 -98 -22 -120 -26 -58 -10 -272 -71 -395 -112 -196 -66 -419 -163 -493
-215 -81 -56 -321 -271 -509 -457 -115 -112 -208 -199 -208 -192 0 7 11 37 25
67 14 30 25 58 25 63 0 5 11 19 25 32 13 13 25 28 25 33 0 5 11 21 25 35 14
14 50 56 80 93 54 65 105 103 270 203 36 22 94 60 128 85 86 63 257 172 379
242 66 38 78 56 18 27 -21 -10 -44 -19 -50 -19 -5 0 -10 -4 -10 -10 0 -5 -12
-13 -27 -16 -33 -8 -135 -63 -145 -78 -4 -6 -8 -7 -8 -2 0 5 -8 2 -17 -6 -10
-9 -28 -19 -40 -22 -13 -4 -23 -11 -23 -16 0 -5 -17 -17 -37 -26 -21 -10 -42
-24 -46 -31 -4 -7 -13 -13 -20 -13 -7 -1 -28 -14 -47 -30 -19 -17 -40 -30 -47
-30 -7 0 -13 -5 -13 -10 0 -6 -16 -18 -35 -27 -19 -9 -35 -20 -35 -25 0 -4 -5
-8 -12 -8 -12 0 -83 -50 -127 -90 -16 -14 -38 -32 -51 -40 -13 -8 -41 -29 -64
-45 -23 -17 -49 -34 -58 -38 -10 -3 -18 -11 -18 -17 0 -5 -6 -10 -14 -10 -8 0
-21 -8 -28 -17 -7 -10 -28 -26 -47 -37 -19 -10 -42 -26 -52 -35 -10 -9 -37
-32 -60 -51 -52 -42 -115 -99 -179 -160 -245 -232 -264 -249 -316 -275 -21
-11 -40 -23 -42 -27 -2 -5 -29 -15 -60 -24 -31 -9 -61 -20 -67 -24 -5 -5 -32
-11 -60 -15 -27 -4 -68 -16 -90 -25 -23 -10 -52 -21 -65 -25 -24 -6 -50 -44
-50 -72 0 -7 -4 -13 -9 -13 -6 0 -13 -21 -16 -47 -10 -75 -14 -91 -30 -107 -9
-8 -16 -18 -15 -21 0 -3 -7 -21 -15 -41 -8 -20 -15 -43 -15 -50 0 -8 -4 -14
-8 -14 -5 0 -15 -19 -21 -42 -7 -24 -22 -62 -32 -85 -10 -23 -19 -46 -19 -51
0 -5 -9 -37 -20 -71 -11 -35 -23 -115 -28 -186 -6 -69 -14 -131 -20 -138 -16
-19 -42 -226 -42 -334 0 -53 7 -173 16 -266 14 -138 15 -176 5 -204 -8 -20
-10 -54 -7 -81 3 -26 8 -116 11 -201 2 -85 9 -159 15 -165 16 -16 12 -73 -5
-80 -10 -3 -15 -19 -15 -47 0 -41 17 -68 79 -123 13 -11 33 -31 44 -43 12 -13
25 -23 30 -23 5 0 20 -10 32 -22 12 -13 34 -32 49 -43 15 -11 35 -27 44 -35
10 -8 31 -24 47 -34 16 -11 34 -23 40 -28 5 -5 18 -14 27 -21 12 -9 20 -37 28
-102 6 -49 14 -99 19 -110 5 -11 17 -60 26 -110 9 -49 20 -94 24 -100 11 -14
31 -97 26 -105 -3 -4 -44 -10 -92 -14 -48 -4 -92 -11 -98 -15 -13 -10 -142
-31 -189 -31 -19 0 -38 -4 -41 -10 -3 -5 -20 -10 -36 -10 -17 0 -39 -5 -50
-10 -10 -6 -43 -13 -72 -16 -31 -4 -60 -13 -73 -25 -11 -10 -30 -19 -42 -19
-12 0 -22 -6 -22 -14 0 -21 -30 -48 -47 -42 -10 4 -14 -1 -12 -17 2 -23 -19
-77 -31 -77 -4 0 -10 -11 -12 -25 -3 -13 -1 -22 4 -19 5 3 12 -3 15 -15 3 -11
9 -18 14 -15 5 3 9 -1 9 -9 0 -19 31 -32 120 -52 41 -9 84 -20 95 -25 11 -5
49 -16 85 -24 36 -9 70 -22 75 -29 6 -8 37 -16 71 -19 33 -3 69 -10 80 -16 10
-6 52 -21 92 -33 39 -13 72 -27 72 -32 0 -5 7 -7 15 -3 8 3 15 1 15 -4 0 -5
21 -12 46 -16 26 -4 59 -13 73 -20 14 -8 33 -14 42 -14 9 0 30 -7 45 -15 16
-8 52 -15 81 -15 28 0 54 -4 57 -9 3 -4 23 -11 44 -15 43 -6 95 -30 86 -39 -9
-8 53 -19 74 -13 12 4 25 -1 37 -14 12 -13 31 -20 54 -20 66 0 112 -12 107
-26 -5 -13 30 -20 74 -15 36 4 119 -11 117 -21 -2 -12 49 -28 153 -48 36 -6
68 -16 71 -21 10 -17 153 -51 192 -46 20 3 37 1 37 -5 0 -5 5 -6 10 -3 6 3 10
1 10 -4 0 -6 18 -11 40 -11 30 0 40 -4 40 -16 0 -14 7 -15 38 -11 20 4 51 2
67 -2 17 -5 26 -10 20 -10 -28 -3 56 -33 90 -32 60 1 155 -20 155 -34 0 -8 26
-15 75 -19 41 -4 92 -13 112 -20 21 -7 72 -19 113 -26 41 -7 80 -16 85 -20 6
-4 35 -13 65 -20 30 -7 91 -24 135 -37 44 -13 103 -23 130 -23 28 1 75 -6 105
-15 30 -9 83 -16 118 -16 46 0 64 -4 69 -14 4 -11 22 -15 67 -15 34 0 67 -5
73 -11 6 -6 58 -15 115 -20 103 -8 136 -13 173 -29 20 -8 150 -22 210 -22 48
0 165 -21 171 -30 3 -4 40 -8 83 -8 54 0 103 -8 161 -25 46 -14 93 -25 105
-25 13 0 51 -9 86 -21 35 -12 89 -27 119 -34 30 -8 84 -21 119 -30 36 -8 83
-15 105 -15 23 1 76 1 119 1 70 -1 77 -3 77 -21 0 -18 7 -20 65 -20 66 0 154
-14 190 -30 11 -5 52 -11 90 -14 246 -16 401 -30 406 -38 13 -19 462 -46 569
-35 19 2 23 2 8 0 -56 -9 -25 -20 68 -26 52 -3 101 -10 108 -16 14 -12 56 -15
391 -34 44 -3 92 -10 107 -15 14 -6 58 -11 96 -10 39 0 76 -3 84 -8 7 -5 40
-9 73 -11 180 -6 280 -15 292 -24 7 -6 25 -9 40 -6 15 3 84 1 153 -4 69 -5
195 -11 280 -14 85 -3 214 -7 285 -10 72 -2 213 -5 315 -6 104 -1 190 -6 198
-12 8 -6 16 -6 26 2 16 13 263 13 272 0 7 -12 91 -11 99 1 3 6 33 10 65 10 32
0 62 -4 65 -10 8 -13 52 -13 60 0 9 14 121 12 145 -2 16 -10 24 -10 40 0 24
15 66 16 75 2 8 -12 98 -13 110 -1 6 5 152 12 325 15 390 9 468 11 750 22 124
5 262 8 308 8 54 -1 82 2 82 10 0 7 38 11 118 12 64 0 142 1 172 3 30 2 80 3
110 2 30 -1 89 2 130 5 41 3 93 7 116 8 22 0 48 7 56 14 11 9 67 14 179 17 90
3 176 7 192 8 15 2 38 4 52 5 14 1 25 8 25 16 0 12 7 13 32 5 48 -13 111 -11
134 6 12 8 53 16 95 18 275 16 545 42 551 53 5 7 47 15 108 19 55 4 100 11
100 16 0 5 29 9 65 9 47 0 67 4 71 14 4 10 34 16 111 21 70 5 106 12 110 20 4
12 76 25 167 30 22 1 42 8 47 17 5 10 17 14 34 10 15 -2 25 0 25 7 0 6 13 11
29 11 16 0 34 6 40 14 7 8 27 18 44 22 18 3 35 12 40 18 5 8 10 7 17 -4 8 -11
9 -8 4 13 -3 15 -2 27 2 26 28 -5 44 5 62 35 16 28 18 37 8 45 -7 6 -16 8 -19
4 -4 -3 -7 5 -7 20 0 27 -14 35 -68 42 -17 1 -27 8 -26 18 1 11 -13 17 -52 22
-29 3 -58 13 -65 21 -6 8 -18 14 -25 14 -8 0 -37 11 -66 25 -28 14 -62 25 -74
25 -13 0 -25 4 -28 9 -3 5 -18 12 -33 16 -15 3 -30 10 -33 15 -3 5 -28 11 -55
15 -27 3 -56 12 -65 20 -9 8 -29 16 -43 17 -15 1 -27 5 -27 9 0 4 -19 9 -42
13 -23 4 -45 11 -48 16 -5 8 -62 19 -127 25 -12 1 -29 8 -38 15 -16 13 -24 15
-93 21 -18 2 -36 7 -38 11 -3 4 -22 8 -43 8 -20 0 -41 4 -47 9 -5 5 -60 15
-122 22 -63 8 -108 15 -100 17 7 3 37 30 66 61 72 75 81 87 127 154 43 64 35
61 200 77 66 6 136 15 155 20 19 5 67 16 105 26 39 9 73 20 76 25 3 5 61 11
130 14 68 3 143 8 167 11 46 6 82 35 82 66 0 10 7 21 15 24 8 4 15 10 15 15 0
5 12 28 27 52 27 43 37 122 16 135 -5 4 -18 28 -28 55 -10 26 -21 47 -25 47
-4 0 -12 19 -19 42 -7 24 -18 52 -25 63 -7 11 -18 38 -25 60 -7 22 -16 49 -21
60 -40 90 -41 92 -24 193 9 54 20 106 25 117 4 11 15 85 23 165 9 80 18 163
21 185 3 22 12 101 21 175 9 74 20 144 25 155 4 11 11 63 14 117 5 76 3 103
-9 130 -8 18 -22 50 -30 71 -9 21 -20 36 -25 33 -5 -4 -12 -2 -16 4 -13 21
-25 9 -25 -25 0 -19 -2 -35 -5 -35 -3 0 -22 11 -43 24 -20 13 -58 35 -84 50
-27 15 -48 34 -48 42 0 11 -6 14 -22 9 -13 -3 -18 -3 -13 2 6 4 10 15 9 23 0
8 -2 24 -2 34 -2 18 -4 17 -25 -5 -16 -17 -20 -28 -13 -37 9 -13 -4 -8 -131
43 -24 9 -43 22 -43 27 0 6 29 47 63 92 67 85 92 125 84 133 -3 2 -8 -4 -11
-15 -4 -11 -14 -29 -24 -40 -31 -37 -87 -105 -99 -121 -6 -9 -13 -14 -16 -11
-2 3 -11 51 -20 107 -15 87 -37 164 -72 246 -7 18 -1 18 124 15 72 -2 131 -1
131 2 0 38 -190 199 -301 255 -19 10 -36 21 -39 24 -9 13 -195 99 -250 117
-30 10 -58 22 -62 28 -4 6 -8 8 -8 3 0 -4 47 -54 104 -110 105 -104 138 -147
114 -147 -7 0 -26 12 -43 26 -16 14 -42 32 -57 40 -15 8 -31 20 -35 27 -12 19
-192 99 -209 93 -8 -3 -14 -1 -14 4 0 6 -8 10 -17 9 -11 0 -13 -3 -5 -6 7 -3
18 -19 26 -36 7 -18 32 -52 55 -77 23 -25 50 -61 61 -81 10 -19 26 -41 34 -48
21 -17 21 -61 1 -61 -9 0 -31 7 -50 14 -19 8 -35 12 -35 9 0 -3 -18 11 -40 31
-22 19 -52 38 -67 41 -16 4 -39 8 -52 11 -13 3 -56 20 -95 39 -39 18 -120 56
-181 85 -60 29 -150 64 -200 80 -49 15 -117 37 -150 50 -33 12 -89 27 -125 34
-37 7 -65 17 -65 24 0 7 -4 13 -10 14 -5 1 -53 37 -105 81 -109 91 -243 181
-382 257 -149 81 -134 86 72 23 228 -70 472 -155 660 -231 205 -83 233 -93
237 -88 12 11 -163 112 -375 218 -123 60 -221 112 -219 114 10 10 382 -102
570 -172 230 -85 505 -206 519 -227 4 -6 10 -9 13 -6 7 8 -47 50 -95 74 -19
10 -37 21 -40 25 -3 4 -24 15 -47 25 -24 11 -43 22 -43 27 0 4 -5 8 -10 8 -6
0 -41 14 -77 31 -36 17 -81 33 -99 36 -19 3 -34 9 -34 14 0 4 -23 15 -51 23
-28 9 -57 20 -63 24 -6 5 -38 17 -71 28 -33 10 -62 21 -65 24 -3 4 -18 10 -35
14 -16 4 -47 16 -70 25 -22 10 -65 24 -95 31 -30 7 -57 16 -60 20 -3 3 -34 14
-70 24 -36 9 -74 21 -85 26 -25 11 -206 55 -297 71 -38 7 -68 16 -68 20 0 4
-44 15 -97 25 -54 9 -100 20 -103 24 -3 4 -52 15 -110 25 -58 10 -107 22 -110
26 -8 11 -53 14 -68 5 -20 -12 -28 2 -10 17 11 8 19 37 23 90 l7 78 -79 77
c-113 108 -133 126 -133 114 0 -6 32 -44 71 -84 94 -97 112 -123 96 -136 -6
-6 -28 -12 -47 -14 -33 -3 -35 -2 -32 27 4 40 -47 120 -81 129 -15 3 -39 11
-54 18 -32 13 -156 45 -223 57 -25 4 -65 17 -90 28 l-45 21 29 7 c16 5 51 2
82 -5 30 -7 57 -10 61 -7 3 4 11 3 17 -2 6 -4 38 -11 71 -15 32 -4 69 -9 82
-12 14 -4 23 -2 23 5 0 6 -8 11 -18 11 -10 0 -22 4 -27 9 -11 10 -126 26 -265
37 -103 9 -90 5 -116 29 -66 62 -104 95 -110 95 -4 0 -17 10 -29 23 -12 12
-37 33 -55 47 -18 14 -41 33 -51 43 -11 9 -19 14 -19 10 0 -5 -5 0 -11 10 -5
9 -17 17 -24 17 -8 0 -15 4 -15 10 0 5 -28 27 -62 49 -35 22 -71 46 -80 55
-10 9 -22 16 -26 16 -5 0 -17 9 -29 19 -11 10 -33 26 -49 34 -16 9 -45 31 -64
51 -19 19 -39 36 -45 36 -9 0 -32 14 -104 62 -14 10 -41 24 -60 33 -19 8 -39
22 -45 31 -6 8 -18 16 -26 18 -23 5 -66 25 -55 26 6 0 -10 10 -35 21 -24 11
-47 23 -50 27 -3 4 -24 16 -47 26 -24 11 -43 23 -43 28 0 4 -6 8 -13 8 -23 0
-78 31 -72 41 4 5 0 6 -8 3 -8 -3 -21 1 -28 9 -8 7 -20 12 -27 9 -6 -2 -12 3
-12 12 0 10 -9 16 -26 16 -16 0 -23 4 -18 12 4 6 3 8 -3 5 -12 -7 -73 11 -73
22 0 3 -17 15 -37 26 -21 11 -40 22 -43 25 -3 3 -24 12 -47 20 -24 7 -43 16
-43 19 0 3 -19 12 -42 19 -23 7 -60 22 -83 32 -22 10 -66 24 -97 30 -32 7 -58
17 -58 21 0 4 -33 13 -72 19 -40 7 -78 16 -84 21 -12 9 -145 31 -444 71 -91
12 -167 25 -170 29 -3 3 -66 12 -140 18 -74 7 -144 16 -155 21 -20 9 -374 40
-451 40 -22 0 -44 4 -50 9 -10 10 -318 28 -609 37 -110 3 -213 10 -230 14 -43
12 -935 19 -1215 9z m-1870 -391 c-19 -5 -39 -13 -45 -18 -5 -4 -25 -8 -42 -8
-18 0 -38 -4 -45 -8 -7 -5 -19 -9 -28 -10 -8 -1 -24 -5 -35 -8 -11 -3 -63 -15
-115 -27 -158 -35 -164 -37 -195 -48 -16 -6 -61 -22 -100 -35 -85 -29 -203
-76 -329 -130 -23 -10 -37 -13 -34 -6 2 6 30 23 63 36 146 62 255 104 269 104
8 0 17 4 20 9 3 5 36 17 73 27 38 9 73 20 78 24 13 10 289 74 365 86 14 2 39
8 55 13 17 5 41 9 55 9 20 0 18 -2 -10 -10z m-972 -370 c-18 -24 -41 -51 -50
-60 -10 -10 -18 -22 -18 -26 0 -4 -15 -23 -33 -42 -32 -33 -77 -96 -105 -146
-14 -25 -20 -28 -46 -18 -14 5 -14 9 -1 34 8 16 27 38 42 50 16 12 27 25 25
28 -1 4 9 24 22 45 62 93 -31 -1 -114 -116 -23 -32 -26 -34 -33 -15 -6 16 9
36 77 105 47 47 90 82 95 78 6 -3 14 2 18 11 12 33 117 111 151 114 2 0 -11
-19 -30 -42z m-513 -848 c323 -17 721 -54 1025 -96 102 -14 250 -34 330 -45
214 -28 239 -34 255 -55 16 -21 19 -34 8 -34 -3 0 -92 12 -197 26 -136 19
-193 31 -200 42 -6 10 -11 11 -15 3 -5 -7 -63 -3 -201 14 -107 14 -287 34
-400 45 -113 11 -248 24 -300 30 -81 8 -234 19 -495 34 -197 12 -273 22 -259
36 12 12 103 18 189 13 39 -2 156 -8 260 -13z m-579 -15 c16 -8 48 -15 72 -15
23 0 42 -4 42 -9 0 -7 176 -23 260 -23 14 0 99 -4 190 -10 91 -5 172 -10 180
-10 8 0 67 -6 130 -13 63 -7 151 -16 195 -20 83 -6 94 -13 96 -55 0 -14 3 -19
6 -12 2 7 13 17 23 22 17 9 18 7 13 -25 -5 -34 -4 -35 25 -35 17 0 34 -4 37
-10 3 -5 1 -10 -4 -10 -6 0 -11 -7 -11 -15 0 -12 15 -15 75 -15 73 0 75 -1 75
-25 0 -23 -3 -25 -50 -25 -47 0 -50 -2 -50 -25 0 -24 3 -25 55 -25 52 0 55 -1
55 -25 0 -25 2 -26 60 -24 49 2 63 -2 78 -18 9 -11 23 -18 30 -16 16 6 15 -13
-3 -45 -19 -35 -73 -200 -81 -249 -3 -21 -12 -47 -19 -57 -14 -18 -18 -18
-142 13 -184 46 -427 103 -618 146 -266 59 -393 90 -430 105 -17 8 -16 9 10
11 17 1 36 1 43 0 18 -3 117 47 135 67 9 9 22 44 31 76 14 55 14 61 -4 96 -24
48 -58 70 -88 59 -12 -5 -47 -10 -77 -12 -63 -5 -73 -10 -55 -32 10 -13 9 -15
-7 -15 -14 0 -19 -7 -19 -22 1 -13 6 -26 11 -30 15 -11 -30 -10 -59 2 -29 10
-35 37 -11 46 21 9 19 24 -4 24 -11 0 -29 -15 -41 -36 -31 -49 -24 -152 11
-191 l24 -26 -47 7 c-51 8 -75 -8 -36 -23 13 -6 111 -44 218 -87 107 -42 202
-81 210 -86 16 -10 -48 -5 -163 13 -38 6 -148 14 -245 18 l-177 6 -3 33 c-4
40 30 156 60 209 29 51 84 119 132 166 21 20 36 40 32 44 -12 12 -132 -121
-175 -195 -30 -51 -48 -98 -62 -164 -11 -51 -21 -94 -23 -95 -1 -2 -33 -4 -71
-5 -60 -1 -70 1 -86 21 -11 13 -19 30 -19 39 0 9 -7 36 -16 59 -14 37 -21 43
-45 43 -16 0 -29 4 -29 9 0 10 77 31 114 31 27 0 42 15 26 25 -12 7 -140 32
-365 70 -178 31 -185 32 -185 50 0 31 34 82 76 115 48 38 52 39 194 65 131 23
197 44 248 77 65 43 99 59 145 68 62 12 72 11 103 -5z m7894 -218 c58 -5 546
-34 645 -38 11 -1 76 -5 145 -10 69 -5 242 -16 385 -24 143 -9 296 -20 340
-25 44 -5 143 -14 220 -20 77 -6 192 -18 255 -26 63 -8 128 -14 144 -14 l30 0
-22 16 c-12 8 -46 24 -75 35 -39 14 -44 18 -19 14 19 -3 48 -11 65 -19 18 -8
73 -31 122 -51 214 -87 455 -217 600 -322 63 -46 175 -151 175 -164 0 -14 -20
-21 -38 -13 -9 4 -66 8 -127 10 -128 4 -178 11 -169 25 3 6 -13 9 -43 7 -54
-2 -212 10 -225 18 -5 3 -81 10 -171 15 -89 6 -184 12 -212 14 -127 10 -385
27 -535 35 -91 4 -203 13 -250 18 -47 6 -161 13 -255 17 -93 3 -224 9 -290 13
-66 3 -144 6 -172 5 -38 -1 -53 3 -53 12 0 10 -16 13 -62 12 -35 -1 -66 -6
-70 -11 -3 -6 -26 -2 -54 9 -26 10 -74 20 -107 22 -33 2 -73 11 -88 19 -16 8
-40 14 -54 14 -14 0 -54 6 -88 14 -34 8 -87 19 -117 25 -30 7 -75 16 -100 21
-53 11 -270 41 -320 44 -19 1 -40 5 -46 9 -6 3 -28 7 -50 8 -21 1 -95 9 -164
20 -100 14 -319 35 -445 41 -11 0 -63 7 -115 14 -52 7 -167 20 -255 29 -88 9
-176 18 -195 21 -19 3 -98 9 -175 13 -77 4 -146 11 -154 15 -7 5 -48 10 -90
12 -166 7 -439 24 -501 31 l-65 7 55 7 c364 46 828 72 1455 82 259 4 1273 0
1335 -6z m-2680 -108 c14 1 34 -3 45 -8 31 -14 188 -41 240 -41 25 0 62 -7 82
-15 19 -8 46 -15 60 -15 13 0 33 -5 44 -11 11 -6 41 -14 67 -19 66 -13 139
-29 197 -45 28 -7 70 -19 95 -25 25 -7 70 -21 100 -31 30 -11 78 -24 105 -29
58 -10 221 -63 283 -91 23 -10 49 -19 58 -19 8 0 31 -8 52 -19 20 -10 52 -21
70 -24 55 -11 192 -73 192 -87 0 -14 -13 -12 -36 5 -10 8 -38 15 -61 15 -23 0
-44 4 -47 9 -3 5 -23 11 -43 14 -21 3 -101 19 -178 36 -77 18 -158 35 -180 40
-22 4 -50 13 -62 19 -12 7 -35 12 -52 12 -16 0 -32 4 -35 9 -3 4 -38 12 -78
16 -40 3 -77 10 -83 15 -5 4 -37 10 -70 14 -33 4 -82 13 -110 22 -27 8 -88 19
-134 25 -47 5 -91 15 -98 21 -7 6 -46 13 -86 15 -39 2 -88 8 -107 14 -19 5
-129 20 -245 34 -115 14 -259 33 -320 44 -450 78 -457 80 -425 102 10 7 133 8
375 4 198 -4 371 -7 385 -6z m-3596 -226 c-15 -11 -18 -27 -18 -81 1 -108 13
-141 62 -179 24 -18 47 -31 52 -28 4 3 14 -3 21 -12 13 -15 11 -16 -11 -10
-14 3 -65 13 -115 23 -49 9 -94 20 -98 24 -9 8 14 102 38 155 7 17 18 47 25
68 6 20 16 37 21 37 5 0 9 6 9 13 0 7 6 25 13 40 l12 27 3 -32 c3 -22 -2 -36
-14 -45z m655 -102 c12 -12 41 -21 85 -25 61 -7 66 -9 66 -32 0 -21 5 -24 35
-24 19 0 35 -4 35 -10 0 -5 18 -13 40 -16 30 -5 40 -11 40 -25 0 -13 7 -19 23
-19 44 0 67 -12 68 -34 0 -11 3 -16 6 -9 7 19 53 -36 53 -63 0 -17 6 -24 20
-24 12 0 25 -10 32 -25 6 -14 19 -25 28 -25 10 0 23 -7 30 -15 7 -9 30 -15 54
-15 44 -1 82 -22 71 -39 -13 -22 50 -33 165 -29 95 3 123 7 162 26 42 21 65
24 224 28 138 4 179 2 185 -8 6 -10 12 -8 22 7 12 15 11 -4 -4 -105 -11 -68
-22 -127 -27 -132 -7 -7 -55 3 -267 55 -180 45 -300 80 -310 91 -5 6 -23 12
-40 12 -16 1 -91 11 -165 23 -74 12 -162 27 -195 32 -33 5 -96 16 -140 25
-106 20 -144 27 -310 54 -233 37 -463 84 -477 98 -4 4 19 4 52 -2 42 -7 66 -6
82 2 13 6 38 14 57 17 46 10 111 70 111 104 1 27 12 50 44 92 25 32 116 39
145 10z m1526 -397 c7 -10 27 -17 53 -18 23 0 42 -4 42 -7 0 -4 23 -9 51 -11
28 -3 55 -12 61 -19 7 -10 11 -11 14 -2 4 8 18 5 49 -13 28 -15 60 -24 89 -24
25 0 48 -4 51 -10 3 -5 26 -10 51 -10 24 0 44 -4 44 -9 0 -6 20 -13 45 -17 34
-5 45 -11 45 -24 0 -10 10 -22 22 -26 26 -8 48 -28 48 -43 0 -6 9 -11 20 -11
31 0 24 -17 -10 -23 -37 -8 -112 -41 -162 -73 -21 -13 -45 -24 -53 -24 -8 0
-54 18 -101 40 -115 54 -167 67 -308 80 -66 6 -122 12 -124 14 -10 10 44 246
56 246 3 0 10 -7 17 -16z m1878 -26 c-18 -24 2 -121 33 -168 30 -43 31 -34 3
25 -25 53 -19 74 6 23 16 -30 87 -140 118 -180 7 -9 25 -20 40 -23 40 -10 35
19 -10 64 -46 44 -103 118 -103 131 0 14 34 12 48 -2 7 -7 12 -9 12 -6 0 4 37
-7 83 -24 45 -16 100 -36 122 -44 22 -8 48 -19 57 -24 10 -6 22 -10 27 -10 5
0 31 -9 57 -21 57 -24 46 -39 -22 -31 -29 3 -44 1 -44 -7 0 -6 8 -11 18 -11
10 0 22 -4 28 -9 5 -5 22 -11 39 -13 21 -2 34 -11 43 -30 10 -22 20 -28 44
-28 17 0 29 -2 26 -5 -5 -6 -264 9 -371 21 l-57 7 55 -57 c33 -34 64 -56 77
-56 43 0 203 -23 190 -28 -24 -8 64 -40 145 -53 75 -11 128 -28 93 -29 -9 0
-105 9 -214 20 -109 12 -204 19 -210 17 -6 -2 2 -12 16 -21 19 -12 54 -19 110
-22 113 -6 109 -5 130 -26 10 -10 31 -18 47 -18 16 0 44 -3 62 -6 27 -4 31 -3
19 6 -12 9 -1 10 45 6 33 -3 104 -8 157 -12 54 -3 100 -9 103 -13 2 -5 -7 -23
-21 -42 -25 -34 -25 -34 -4 -37 18 -3 20 -8 15 -35 -13 -62 -16 -67 -44 -67
-24 0 -269 30 -371 46 -34 5 -34 5 -15 -11 11 -9 65 -39 119 -66 55 -27 104
-53 110 -58 20 -14 100 -43 161 -56 33 -8 87 -21 120 -30 51 -14 68 -15 113
-4 29 7 51 17 49 23 -2 6 4 36 13 66 16 54 18 55 50 52 19 -1 36 -5 38 -7 12
-12 -13 -59 -58 -108 -54 -59 -58 -67 -36 -67 36 0 76 36 94 85 l19 50 16 -65
c8 -36 16 -53 16 -39 1 15 8 30 17 33 9 4 82 -3 163 -14 124 -18 156 -19 217
-9 87 14 107 25 80 42 -29 18 -205 171 -202 174 4 5 114 -22 149 -36 16 -6 54
-11 85 -11 31 -1 68 -7 82 -15 14 -8 44 -14 68 -15 28 0 45 -5 48 -15 4 -8 12
-15 20 -15 8 0 14 -4 14 -10 0 -5 -13 -10 -29 -10 -17 0 -33 -4 -36 -10 -3 -5
-27 -10 -53 -10 -26 0 -54 -5 -62 -10 -21 -13 17 -13 95 1 251 43 317 50 410
43 50 -5 81 -10 70 -12 -11 -2 -72 -14 -135 -28 -552 -119 -793 -175 -824
-190 -16 -8 -36 -14 -45 -14 -24 0 -577 138 -686 172 -117 36 -247 94 -319
142 -28 19 -91 76 -141 128 -148 155 -261 310 -364 501 -47 87 -52 103 -49
147 1 28 0 50 -4 50 -5 0 -8 7 -8 15 0 9 9 15 21 15 15 0 19 -4 12 -12z m161
-44 c42 -14 109 -39 149 -55 102 -43 384 -149 395 -149 10 0 163 -62 252 -103
119 -54 246 -107 257 -107 7 0 17 -8 22 -19 13 -24 233 -94 426 -136 39 -8
129 -28 200 -43 72 -16 161 -35 198 -42 37 -7 66 -14 64 -16 -9 -10 -373 59
-565 106 -178 43 -527 170 -757 275 -16 7 -68 29 -115 48 -47 19 -96 39 -110
45 -32 14 -404 152 -492 182 -38 13 -68 27 -68 32 0 16 69 8 144 -18z m6629
-88 c98 -50 229 -135 243 -157 3 -5 -41 -9 -105 -9 l-111 0 -54 73 c-30 39
-66 85 -79 102 -23 28 -26 45 -8 45 4 0 56 -24 114 -54z m-1683 -276 c43 -6
27 -7 -70 -6 l-125 1 -3 -33 c-2 -22 3 -41 15 -54 16 -18 26 -20 88 -14 96 8
140 22 180 58 19 16 41 28 49 25 21 -8 40 -126 27 -173 -6 -21 -11 -42 -11
-46 0 -26 111 12 133 45 25 39 30 67 12 67 -9 0 -32 16 -52 35 -20 19 -41 35
-46 35 -6 0 -8 3 -4 6 9 9 107 -47 128 -74 85 -109 -117 -191 -400 -163 -123
13 -254 48 -300 80 -51 37 -35 42 44 14 41 -15 77 -25 79 -22 2 2 -1 28 -7 58
-8 40 -7 66 2 99 6 25 10 46 8 49 -8 7 -115 -38 -129 -54 -7 -9 -18 -28 -25
-42 -9 -20 -12 -22 -12 -7 -1 12 -6 16 -16 12 -18 -7 -20 14 -2 35 22 27 65
49 125 63 62 16 225 19 312 6z m-5253 -501 c11 -11 47 -17 105 -18 19 -1 26
-5 22 -14 -6 -17 90 -84 258 -182 74 -42 234 -140 238 -145 3 -3 26 -18 53
-33 26 -15 47 -30 47 -33 0 -22 -295 65 -445 131 -16 8 -70 30 -120 49 -132
51 -146 59 -172 113 -43 86 -55 126 -41 135 18 11 42 10 55 -3z m-5727 -81
c12 -35 31 -88 42 -118 26 -71 30 -117 15 -161 -15 -44 -30 -49 -39 -12 -20
81 -55 353 -45 353 3 0 15 -28 27 -62z m9107 -164 c42 -12 15 -13 -232 -7
-205 4 -288 9 -310 19 -26 12 5 13 232 8 175 -4 278 -10 310 -20z m-4137 -569
c43 -96 63 -156 66 -192 3 -32 0 -53 -6 -53 -5 0 -10 -20 -10 -45 0 -46 -20
-69 -40 -49 -5 5 -21 68 -34 139 -67 357 -80 451 -51 375 7 -19 41 -98 75
-175z m-153 -317 c33 -32 43 -63 22 -70 -6 -2 -73 2 -148 9 -75 6 -147 12
-160 13 -41 0 -11 17 64 34 39 9 93 23 120 31 68 19 65 19 102 -17z m7867
-295 c-34 -104 -54 -117 -176 -121 -55 -2 -116 -1 -135 3 l-36 6 25 13 c14 7
38 16 54 18 29 6 77 24 224 86 37 16 50 14 44 -5z m-8144 -245 c11 -29 43
-179 38 -183 -1 -1 -24 2 -50 8 -53 13 -60 25 -74 121 -6 41 -4 51 12 63 28
21 63 16 74 -9z"/>
<path d="M17790 4590 c-30 -11 -55 -20 -57 -20 -10 0 -73 -65 -73 -75 0 -21
29 -27 167 -32 119 -5 133 -4 139 11 5 14 9 15 15 4 10 -15 12 54 3 89 -6 21
-6 21 -25 2 -27 -27 -41 -24 -37 9 3 25 0 27 -37 29 -22 2 -65 -6 -95 -17z"/>
<path d="M9130 7650 c-186 -40 -237 -53 -277 -71 -23 -10 -48 -19 -55 -19 -8
0 -22 -6 -33 -14 -11 -7 -46 -21 -77 -30 -32 -9 -58 -21 -58 -26 0 -6 -6 -10
-14 -10 -23 0 -112 -42 -99 -47 6 -2 28 3 49 12 72 30 479 163 539 176 33 7
62 16 65 20 3 4 28 12 55 17 32 6 39 10 20 10 -16 0 -68 -8 -115 -18z"/>
</g>
</svg>
